<svg width="842" height="596" viewBox="0 0 842 596" fill="none" xmlns="http://www.w3.org/2000/svg">
<path d="M540.985 105.172C543.234 107.666 545.018 110.627 546.236 113.886C547.453 117.145 548.08 120.638 548.08 124.166C548.08 127.693 547.453 131.187 546.236 134.445C545.018 137.704 543.234 140.666 540.985 143.16L518.841 167.697H541.508C551.05 167.697 560.498 169.782 569.314 173.832C578.129 177.883 586.139 183.82 592.885 191.304C599.631 198.788 604.982 207.673 608.632 217.451C612.282 227.229 614.159 237.708 614.156 248.291V409.437C614.156 430.806 606.502 451.3 592.878 466.41C579.254 481.52 560.775 490.009 541.508 490.01H299.345C280.077 490.01 261.598 481.521 247.974 466.41C234.349 451.3 226.695 430.806 226.695 409.437V248.291C226.695 226.922 234.349 206.428 247.974 191.317C261.598 176.207 280.077 167.718 299.345 167.718H321.933L299.829 143.181C297.515 140.704 295.67 137.741 294.4 134.465C293.13 131.188 292.461 127.664 292.432 124.098C292.403 120.532 293.015 116.995 294.232 113.694C295.448 110.393 297.246 107.394 299.519 104.872C301.792 102.349 304.495 100.354 307.471 99.0029C310.447 97.6516 313.635 96.971 316.851 97.0009C320.066 97.0309 323.244 97.7707 326.199 99.1773C329.154 100.584 331.827 102.629 334.061 105.193L385.438 162.175C386.947 163.844 388.236 165.7 389.274 167.697H451.52C452.547 165.72 453.844 163.829 455.375 162.153L506.733 105.172C508.982 102.678 511.652 100.699 514.59 99.3486C517.529 97.9985 520.678 97.3036 523.859 97.3036C527.039 97.3036 530.189 97.9985 533.127 99.3486C536.066 100.699 538.736 102.678 540.985 105.172ZM541.508 221.627H299.345C293.232 221.624 287.345 224.185 282.864 228.796C278.384 233.406 275.641 239.726 275.186 246.486L275.128 248.506V409.652C275.128 423.811 285.008 435.413 297.543 436.424L299.345 436.509H541.507C547.619 436.511 553.506 433.95 557.987 429.34C562.467 424.729 565.21 418.41 565.665 411.65L565.723 409.652V248.505C565.723 233.68 554.875 221.648 541.507 221.648L541.508 221.627ZM347.777 275.342C361.144 275.342 371.993 287.374 371.993 302.2V329.057C372.008 332.595 371.393 336.101 370.183 339.375C368.973 342.648 367.192 345.624 364.942 348.132C362.691 350.639 360.017 352.629 357.071 353.987C354.125 355.345 350.967 356.044 347.777 356.044C344.587 356.044 341.428 355.345 338.483 353.987C335.537 352.629 332.862 350.639 330.612 348.132C328.362 345.624 326.581 342.648 325.37 339.375C324.16 336.101 323.545 332.595 323.561 329.057V302.2C323.561 287.374 334.41 275.342 347.777 275.342ZM493.075 275.342C506.443 275.342 517.291 287.374 517.291 302.2V329.057C517.306 332.595 516.691 336.101 515.481 339.375C514.271 342.648 512.49 345.624 510.24 348.132C507.989 350.639 505.315 352.629 502.369 353.987C499.423 355.345 496.265 356.044 493.075 356.044C489.885 356.044 486.726 355.345 483.781 353.987C480.835 352.629 478.16 350.639 475.91 348.132C473.66 345.624 471.878 342.648 470.668 339.375C469.458 336.101 468.843 332.595 468.858 329.057V302.2C468.858 287.374 479.707 275.342 493.075 275.342Z" fill="url(#paint0_linear_4618_11039)"/>
<path d="M420.09 425.102C434.065 425.102 447.467 421.464 457.349 414.99C467.23 408.516 472.782 399.735 472.782 390.579C472.782 381.423 467.23 372.642 457.349 366.168C447.467 359.694 434.065 356.057 420.09 356.057C406.115 356.057 392.713 359.694 382.831 366.168C372.95 372.642 367.398 381.423 367.398 390.579C367.398 399.735 372.95 408.516 382.831 414.99C392.713 421.464 406.115 425.102 420.09 425.102Z" fill="#904CF9"/>
<defs>
<linearGradient id="paint0_linear_4618_11039" x1="382.86" y1="126.077" x2="382.86" y2="519.087" gradientUnits="userSpaceOnUse">
<stop offset="0.08" stop-color="#9945FF"/>
<stop offset="0.19" stop-color="#904CF9"/>
<stop offset="0.3" stop-color="#8752F3"/>
</linearGradient>
</defs>
</svg>
